<svg xmlns="http://www.w3.org/2000/svg" width="300" height="260" viewBox="0 0 300 260"><defs><linearGradient id="g" x1="0" y1="0" x2="0" y2="1"><stop offset="0" stop-color="#A6ECFF" stop-opacity="0.5"></stop><stop offset="1" stop-color="#3A7BFF" stop-opacity="0.22"></stop></linearGradient><linearGradient id="h" x1="0" y1="0" x2="0" y2="1"><stop offset="0" stop-color="#fff" stop-opacity="0.55"></stop><stop offset="1" stop-color="#fff" stop-opacity="0"></stop></linearGradient></defs><path d="M10 232 A140 22 0 1 0 290 232 A140 22 0 1 0 10 232 Z" fill="#3A7BFF" fill-opacity="0.18"></path><path d="M10 232 C10 100 70 12 150 12 C230 12 290 100 290 232 Z" fill="url(#g)" stroke="#BFF1FF" stroke-width="4" stroke-opacity="0.9"></path><path d="M40 150 C80 130 220 130 260 150" fill="none" stroke="#CFF5FF" stroke-width="2" stroke-linejoin="round" stroke-linecap="round" stroke-opacity="0.4"></path><path d="M24 196 C80 176 220 176 276 196" fill="none" stroke="#CFF5FF" stroke-width="2" stroke-linejoin="round" stroke-linecap="round" stroke-opacity="0.35"></path><path d="M70 60 C110 50 190 50 230 60" fill="none" stroke="#CFF5FF" stroke-width="2" stroke-linejoin="round" stroke-linecap="round" stroke-opacity="0.4"></path><path d="M150 12 C120 60 110 150 118 232" fill="none" stroke="#CFF5FF" stroke-width="2" stroke-linejoin="round" stroke-linecap="round" stroke-opacity="0.3"></path><path d="M150 12 C180 60 190 150 182 232" fill="none" stroke="#CFF5FF" stroke-width="2" stroke-linejoin="round" stroke-linecap="round" stroke-opacity="0.3"></path><path d="M44 150 C50 90 90 42 140 30" fill="none" stroke="#fff" stroke-width="8" stroke-linejoin="round" stroke-linecap="round" stroke-opacity="0.45"></path><path d="M10 232 A140 22 0 1 0 290 232 A140 22 0 1 0 10 232 Z" fill="none" stroke="#8FE3FF" stroke-width="4" stroke-linejoin="round" stroke-linecap="round" stroke-opacity="0.85"></path><path d="M92 62 Q92 70 100 70 Q92 70 92 78 Q92 70 84 70 Q92 70 92 62 Z" fill="#fff"></path><path d="M226 102 Q226 108 232 108 Q226 108 226 114 Q226 108 220 108 Q226 108 226 102 Z" fill="#fff"></path><path d="M200 48 Q200 52 204 52 Q200 52 200 56 Q200 52 196 52 Q200 52 200 48 Z" fill="#fff"></path></svg>