<svg xmlns="http://www.w3.org/2000/svg" width="1280" height="720" viewBox="0 0 1280 720" xmlns:c2pa="http://c2pa.org/manifest">
<metadata><c2pa:manifest>AAAWgmp1bWIAAAAeanVtZGMycGEAEQAQgAAAqgA4m3EDYzJwYQAAABZcanVtYgAAAEdqdW1kYzJtYQARABCAAACqADibcQN1cm46YzJwYTo3ZWNmMzAyOS0wNTE5LTQ3ZjEtYTYxZC1iZjY4MjA1OWI2NjMAAAADl2p1bWIAAAApanVtZGMyYXMAEQAQgAAAqgA4m3EDYzJwYS5hc3NlcnRpb25zAAAAALxqdW1iAAAARGp1bWRjYm9yABEAEIAAAKoAOJtxE2MycGEuaW5ncmVkaWVudC52MwAAAAAYYzJzaHA6yMoC2gdsvXYC3lyeM88AAABwY2JvcqNpZGM6Zm9ybWF0bWltYWdlL3N2Zyt4bWxqaW5zdGFuY2VJRHgseG1wOmlpZDpiMzdmZDZmMi05YzY1LTQzMzEtYjYwNi02ZTVkODM0NWJjNTdscmVsYXRpb25zaGlwaHBhcmVudE9mAAAB4mp1bWIAAABBanVtZGNib3IAEQAQgAAAqgA4m3ETYzJwYS5hY3Rpb25zLnYyAAAAABhjMnNohU6PgcO/2nSPDGuvARmCBQAAAZljYm9yomdhY3Rpb25zgqJmYWN0aW9ua2MycGEub3BlbmVkanBhcmFtZXRlcnOha2luZ3JlZGllbnRzgaJjdXJseC1zZWxmI2p1bWJmPWMycGEuYXNzZXJ0aW9ucy9jMnBhLmluZ3JlZGllbnQudjNkaGFzaFggMhMm+VyIyZSOuoj6dLJaXisAEAz+AYUQRTB4Q8+BI42kZmFjdGlvbngdY29tLmFudGhyb3BpYy5jbGF1ZGUucHJvdmlkZWRqcGFyYW1ldGVyc6F4H2NvbS5hbnRocm9waWMub3JpZ2luLWNvbmZpZGVuY2VndW5rbm93bmtkZXNjcmlwdGlvbnhmQ2xhdWRlIHByb3ZpZGVkIHRoaXMgZmlsZSBhdCB0aGUgcmVxdWVzdCBvZiBhIHVzZXIgYW5kIG1heSBoYXZlIGNyZWF0ZWQgb3IgbW9kaWZpZWQgdGhlIGZpbGUgY29udGVudHMubXNvZnR3YXJlQWdlbnShZG5hbWVmQ2xhdWRlcmFsbEFjdGlvbnNJbmNsdWRlZPUAAADIanVtYgAAAEBqdW1kY2JvcgARABCAAACqADibcRNjMnBhLmhhc2guZGF0YQAAAAAYYzJzaJK+TGZsHaqzNm69kQC6QooAAACAY2JvcqVjYWxnZnNoYTI1NmNwYWRNAAAAAAAAAAAAAAAAAGRoYXNoWCA75qUxVNZ+YGb43AqzoeFC3/nz4aA6yiJR2Vm7vjxOIWRuYW1lbmp1bWJmIG1hbmlmZXN0amV4Y2x1c2lvbnOBomVzdGFydBiZZmxlbmd0aBkeBAAAAj5qdW1iAAAAJ2p1bWRjMmNsABEAEIAAAKoAOJtxA2MycGEuY2xhaW0udjIAAAACD2Nib3KlY2FsZ2ZzaGEyNTZpc2lnbmF0dXJleE1zZWxmI2p1bWJmPS9jMnBhL3VybjpjMnBhOjdlY2YzMDI5LTA1MTktNDdmMS1hNjFkLWJmNjgyMDU5YjY2My9jMnBhLnNpZ25hdHVyZWppbnN0YW5jZUlEeCx4bXA6aWlkOmVmNWM1ZDgzLTQ3YTEtNGQ0Ny04MTJiLWZmNTI4ZWFmOTBmMHJjcmVhdGVkX2Fzc2VydGlvbnODomN1cmx4LXNlbGYjanVtYmY9YzJwYS5hc3NlcnRpb25zL2MycGEuaW5ncmVkaWVudC52M2RoYXNoWCAyEyb5XIjJlI66iPp0slpeKwAQDP4BhRBFMHhDz4EjjaJjdXJseCpzZWxmI2p1bWJmPWMycGEuYXNzZXJ0aW9ucy9jMnBhLmFjdGlvbnMudjJkaGFzaFgg5y49ok4wvd4hrX0UEGczcxzIt9gj10iaLVN+qnfo4QiiY3VybHgpc2VsZiNqdW1iZj1jMnBhLmFzc2VydGlvbnMvYzJwYS5oYXNoLmRhdGFkaGFzaFgglgRgX8kygDqDtdo+dk0RsUViV7oMjh9SR4n67wDnLEZ0Y2xhaW1fZ2VuZXJhdG9yX2luZm+jZG5hbWVvQW50aHJvcGljIEZpbGVzZ3ZlcnNpb25lMS4wLjBrc3BlY1ZlcnNpb25lMi40LjAAABA4anVtYgAAAChqdW1kYzJjcwARABCAAACqADibcQNjMnBhLnNpZ25hdHVyZQAAABAIY2JvctKEWQISogEmGCFZAgowggIGMIIBjaADAgECAhRA5aAK7sI50L64g/oGQgU9Z1UTADAKBggqhkjOPQQDAzBJMRcwFQYDVQQKEw5BbnRocm9waWMsIFBCQzEuMCwGA1UEAxMlQW50aHJvcGljIENvbnRlbnQgQ3JlZGVudGlhbHMgUm9vdCBDQTAeFw0yNjA4MDcxODQzNTZaFw0yODA4MDYxOTQzNTZaMEQxFzAVBgNVBAoTDkFudGhyb3BpYywgUEJDMSkwJwYDVQQDEyBBbnRocm9waWMgQ2xhdWRlIENvbnRlbnQgU2lnbmluZzBZMBMGByqGSM49AgEGCCqGSM49AwEHA0IABJh6CmvLUBgFFNU0vUKlOVtE6djd17L5SuwX0LemFisBM3dkd/3cyjxFA3Qo5S46fX0/ihY0VZ7mfb9KF703t5OjWDBWMA4GA1UdDwEB/wQEAwIHgDAVBgNVHSUEDjAMBgorBgEEAYPoXgIBMAwGA1UdEwEB/wQCMAAwHwYDVR0jBBgwFoAUzlHiBIFOZFsj+OPEz5o+nMHXXMIwCgYIKoZIzj0EAwMDZwAwZAIwMXMdFJ4BetLLVY7ORuE9noqbbAZOZn/aArXyTwFAZfKrPzxF2vPoJNf1+UCdg1XGAjBwX1zd9WGqYkqmL5SFqw1QySjr1zJfpJM9+1rdDwSPLMOPOjKuiXjoU/pUUeG9RwmhY3BhZFkNngAAAAAAAAAAAAAAAAAAAAAAAAAAAAAAAAAAAAAAAAAAAAAAAAAAAAAAAAAAAAAAAAAAAAAAAAAAAAAAAAAAAAAAAAAAAAAAAAAAAAAAAAAAAAAAAAAAAAAAAAAAAAAAAAAAAAAAAAAAAAAAAAAAAAAAAAAAAAAAAAAAAAAAAAAAAAAAAAAAAAAAAAAAAAAAAAAAAAAAAAAAAAAAAAAAAAAAAAAAAAAAAAAAAAAAAAAAAAAAAAAAAAAAAAAAAAAAAAAAAAAAAAAAAAAAAAAAAAAAAAAAAAAAAAAAAAAAAAAAAAAAAAAAAAAAAAAAAAAAAAAAAAAAAAAAAAAAAAAAAAAAAAAAAAAAAAAAAAAAAAAAAAAAAAAAAAAAAAAAAAAAAAAAAAAAAAAAAAAAAAAAAAAAAAAAAAAAAAAAAAAAAAAAAAAAAAAAAAAAAAAAAAAAAAAAAAAAAAAAAAAAAAAAAAAAAAAAAAAAAAAAAAAAAAAAAAAAAAAAAAAAAAAAAAAAAAAAAAAAAAAAAAAAAAAAAAAAAAAAAAAAAAAAAAAAAAAAAAAAAAAAAAAAAAAAAAAAAAAAAAAAAAAAAAAAAAAAAAAAAAAAAAAAAAAAAAAAAAAAAAAAAAAAAAAAAAAAAAAAAAAAAAAAAAAAAAAAAAAAAAAAAAAAAAAAAAAAAAAAAAAAAAAAAAAAAAAAAAAAAAAAAAAAAAAAAAAAAAAAAAAAAAAAAAAAAAAAAAAAAAAAAAAAAAAAAAAAAAAAAAAAAAAAAAAAAAAAAAAAAAAAAAAAAAAAAAAAAAAAAAAAAAAAAAAAAAAAAAAAAAAAAAAAAAAAAAAAAAAAAAAAAAAAAAAAAAAAAAAAAAAAAAAAAAAAAAAAAAAAAAAAAAAAAAAAAAAAAAAAAAAAAAAAAAAAAAAAAAAAAAAAAAAAAAAAAAAAAAAAAAAAAAAAAAAAAAAAAAAAAAAAAAAAAAAAAAAAAAAAAAAAAAAAAAAAAAAAAAAAAAAAAAAAAAAAAAAAAAAAAAAAAAAAAAAAAAAAAAAAAAAAAAAAAAAAAAAAAAAAAAAAAAAAAAAAAAAAAAAAAAAAAAAAAAAAAAAAAAAAAAAAAAAAAAAAAAAAAAAAAAAAAAAAAAAAAAAAAAAAAAAAAAAAAAAAAAAAAAAAAAAAAAAAAAAAAAAAAAAAAAAAAAAAAAAAAAAAAAAAAAAAAAAAAAAAAAAAAAAAAAAAAAAAAAAAAAAAAAAAAAAAAAAAAAAAAAAAAAAAAAAAAAAAAAAAAAAAAAAAAAAAAAAAAAAAAAAAAAAAAAAAAAAAAAAAAAAAAAAAAAAAAAAAAAAAAAAAAAAAAAAAAAAAAAAAAAAAAAAAAAAAAAAAAAAAAAAAAAAAAAAAAAAAAAAAAAAAAAAAAAAAAAAAAAAAAAAAAAAAAAAAAAAAAAAAAAAAAAAAAAAAAAAAAAAAAAAAAAAAAAAAAAAAAAAAAAAAAAAAAAAAAAAAAAAAAAAAAAAAAAAAAAAAAAAAAAAAAAAAAAAAAAAAAAAAAAAAAAAAAAAAAAAAAAAAAAAAAAAAAAAAAAAAAAAAAAAAAAAAAAAAAAAAAAAAAAAAAAAAAAAAAAAAAAAAAAAAAAAAAAAAAAAAAAAAAAAAAAAAAAAAAAAAAAAAAAAAAAAAAAAAAAAAAAAAAAAAAAAAAAAAAAAAAAAAAAAAAAAAAAAAAAAAAAAAAAAAAAAAAAAAAAAAAAAAAAAAAAAAAAAAAAAAAAAAAAAAAAAAAAAAAAAAAAAAAAAAAAAAAAAAAAAAAAAAAAAAAAAAAAAAAAAAAAAAAAAAAAAAAAAAAAAAAAAAAAAAAAAAAAAAAAAAAAAAAAAAAAAAAAAAAAAAAAAAAAAAAAAAAAAAAAAAAAAAAAAAAAAAAAAAAAAAAAAAAAAAAAAAAAAAAAAAAAAAAAAAAAAAAAAAAAAAAAAAAAAAAAAAAAAAAAAAAAAAAAAAAAAAAAAAAAAAAAAAAAAAAAAAAAAAAAAAAAAAAAAAAAAAAAAAAAAAAAAAAAAAAAAAAAAAAAAAAAAAAAAAAAAAAAAAAAAAAAAAAAAAAAAAAAAAAAAAAAAAAAAAAAAAAAAAAAAAAAAAAAAAAAAAAAAAAAAAAAAAAAAAAAAAAAAAAAAAAAAAAAAAAAAAAAAAAAAAAAAAAAAAAAAAAAAAAAAAAAAAAAAAAAAAAAAAAAAAAAAAAAAAAAAAAAAAAAAAAAAAAAAAAAAAAAAAAAAAAAAAAAAAAAAAAAAAAAAAAAAAAAAAAAAAAAAAAAAAAAAAAAAAAAAAAAAAAAAAAAAAAAAAAAAAAAAAAAAAAAAAAAAAAAAAAAAAAAAAAAAAAAAAAAAAAAAAAAAAAAAAAAAAAAAAAAAAAAAAAAAAAAAAAAAAAAAAAAAAAAAAAAAAAAAAAAAAAAAAAAAAAAAAAAAAAAAAAAAAAAAAAAAAAAAAAAAAAAAAAAAAAAAAAAAAAAAAAAAAAAAAAAAAAAAAAAAAAAAAAAAAAAAAAAAAAAAAAAAAAAAAAAAAAAAAAAAAAAAAAAAAAAAAAAAAAAAAAAAAAAAAAAAAAAAAAAAAAAAAAAAAAAAAAAAAAAAAAAAAAAAAAAAAAAAAAAAAAAAAAAAAAAAAAAAAAAAAAAAAAAAAAAAAAAAAAAAAAAAAAAAAAAAAAAAAAAAAAAAAAAAAAAAAAAAAAAAAAAAAAAAAAAAAAAAAAAAAAAAAAAAAAAAAAAAAAAAAAAAAAAAAAAAAAAAAAAAAAAAAAAAAAAAAAAAAAAAAAAAAAAAAAAAAAAAAAAAAAAAAAAAAAAAAAAAAAAAAAAAAAAAAAAAAAAAAAAAAAAAAAAAAAAAAAAAAAAAAAAAAAAAAAAAAAAAAAAAAAAAAAAAAAAAAAAAAAAAAAAAAAAAAAAAAAAAAAAAAAAAAAAAAAAAAAAAAAAAAAAAAAAAAAAAAAAAAAAAAAAAAAAAAAAAAAAAAAAAAAAAAAAAAAAAAAAAAAAAAAAAAAAAAAAAAAAAAAAAAAAAAAAAAAAAAAAAAAAAAAAAAAAAAAAAAAAAAAAAAAAAAAAAAAAAAAAAAAAAAAAAAAAAAAAAAAAAAAAAAAAAAAAAAAAAAAAAAAAAAAAAAAAAAAAAAAAAAAAAAAAAAAAAAAAAAAAAAAAAAAAAAAAAAAAAAAAAAAAAAAAAAAAAAAAAAAAAAAAAAAAAAAAAAAAAAAAAAAAAAAAAAAAAAAAAAAAAAAAAAAAAAAAAAAAAAAAAAAAAAAAAAAAAAAAAAAAAAAAAAAAAAAAAAAAAAAAAAAAAAAAAAAAAAAAAAAAAAAAAAAAAAAAAAAAAAAAAAAAAAAAAAAAAAAAAAAAAAAAAAAAAAAAAAAAAAAAAAAAAAAAAAAAAAAAAAAAAAAAAAAAAAAAAAAAAAAAAAAAAAAAAAAAAAAAAAAAAAAAAAAAAAAAAAAAAAAAAAAAAAAAAAAAAAAAAAAAAAAAAAAAAAAAAAAAAAAAAAAAAAAAAAAAAAAAAAAAAAAAAAAAAAAAAAAAAAAAAAAAAAAAAAAAAAAAAAAAAAAAAAAAAAAAAAAAAAAAAAAAAAAAAAAAAAAAAAAAAAAAAAAAAAAAAAAAAAAAAAAAAAAAAAAAAAAAAAAAAAAAAAAAAAAAAAAAAAAAAAAAAAAAAAAAAAAAAAAAAAAAAAAAAAAAAAAAAAAAAAAAAAAAAAAAAAAAAAAAAAAAAAAAAAAAAAAAAAAAAAAAAAAAAAAAAAAAAAAAAAAAAAAAAAAAAAAAAAAAAAAAAAAAAAAAAAAAAAAAAAAAAAAAAAAAAAAAAAAAAAAAAAAAAAAAAAAAAAAAAAAAAAAAAAAAAAAAAAAAAAAAAAAAAAAAAAAAAAAAAAAAAAAAAAAAAAAAAAAAAAAAAAAAAAAAAAAAAAAAAAAAAAAAAAAAAAAAAAAAAAAAAAAAAAAAAAAAAAAAAAAAAAAAAAAAAAAAAAAAAAAAAAAAAAAAAAAAAAAAAAAAAAAAAAAAAAAAAAAAAAAAAAAAAAAAAAAAAAAAAAAAAAAAAAAAAAAAAAAAAAAAAAAAAAAAAAAAAAAAAAAAAAAAAAAAAAAAAAAAAAAAAAAAAAAAAAAAAAAAAAAAAAAAAAAAAAAAAAAAAAAAAAAAAAAAAAAAAAAAAAAAAAAAAAAAAAAAAAAAAAAAAAAAAAAAAAAAAAAAAAAAAAAAAAAAAAAAAAAAAAAAAAAAAAAAAAAAAAAAAAAAAAAAAAAAAAAAAAAAAAAAAAAAAAAAAAAAAAAAAAAAAAAAAAAAAAAAAAAAAAAAAAAAAAAAAAAAAAAAAAAAAAAAAAAAAAAAAAAAAAAAAAAAAAAAAAAAAAAAAAAAAAAAAAAAAAAAAAAAAAAAAAAAAAAAAAAAAAAAAAAAAAAAAAAAAAAAAAAAAAAAAAAAAAAAAAAAAAAAAAAAAAAAAAAAAAAAAAAAAAAAAAAAAAAAAAAAAAAAAAAAAAAAAAAAAAAAAAAAAAAAAAAAAAAAAAAAAAAAAAAAAAAAAAAAAAAAAAAAAAAAAAAAAAAAAAAAAAAAAAAAAAAAAAAAAAAAAAAAAAAAAAAAAAAAAAAAAAAAAAAAAAAAAAAAAAAAAAAAAAAAAAAAAAAAAAAAAAAAAAAAAAAAAAAPZYQEgt0Lcp+EggGrRO8VvHD1/RTb1yvp32Y9hekjGVBp/5CmbJUJ9H4tRZRr1xB0iY24pcgZtdUL4fSbEXMBIeP2A=</c2pa:manifest></metadata>
<g id="battle"><rect x="0" y="0" width="1280" height="720" fill="#446544"></rect><path d="M867 151h4v6h-4zM873 147h4v10h-4zM879 151h4v6h-4zM356 261h4v6h-4zM362 257h4v10h-4zM368 261h4v6h-4zM742 136h4v6h-4zM748 132h4v10h-4zM754 136h4v6h-4zM1240 215h4v6h-4zM1246 211h4v10h-4zM1252 215h4v6h-4zM945 238h4v6h-4zM951 234h4v10h-4zM957 238h4v6h-4zM735 472h4v6h-4zM741 468h4v10h-4zM747 472h4v6h-4zM493 88h4v6h-4zM499 84h4v10h-4zM505 88h4v6h-4zM1068 309h4v6h-4zM1074 305h4v10h-4zM1080 309h4v6h-4zM120 377h4v6h-4zM126 373h4v10h-4zM132 377h4v6h-4zM1248 276h4v6h-4zM1254 272h4v10h-4zM1260 276h4v6h-4zM446 470h4v6h-4zM452 466h4v10h-4zM458 470h4v6h-4zM794 135h4v6h-4zM800 131h4v10h-4zM806 135h4v6h-4zM748 280h4v6h-4zM754 276h4v10h-4zM760 280h4v6h-4zM388 267h4v6h-4zM394 263h4v10h-4zM400 267h4v6h-4zM108 425h4v6h-4zM114 421h4v10h-4zM120 425h4v6h-4zM656 124h4v6h-4zM662 120h4v10h-4zM668 124h4v6h-4zM730 304h4v6h-4zM736 300h4v10h-4zM742 304h4v6h-4zM1262 409h4v6h-4zM1268 405h4v10h-4zM1274 409h4v6h-4zM832 109h4v6h-4zM838 105h4v10h-4zM844 109h4v6h-4zM405 119h4v6h-4zM411 115h4v10h-4zM417 119h4v6h-4zM1186 427h4v6h-4zM1192 423h4v10h-4zM1198 427h4v6h-4zM554 474h4v6h-4zM560 470h4v10h-4zM566 474h4v6h-4zM9 308h4v6h-4zM15 304h4v10h-4zM21 308h4v6h-4zM72 155h4v6h-4zM78 151h4v10h-4zM84 155h4v6h-4zM506 271h4v6h-4zM512 267h4v10h-4zM518 271h4v6h-4zM72 105h4v6h-4zM78 101h4v10h-4zM84 105h4v6h-4zM529 234h4v6h-4zM535 230h4v10h-4zM541 234h4v6h-4zM477 532h4v6h-4zM483 528h4v10h-4zM489 532h4v6h-4zM819 77h4v6h-4zM825 73h4v10h-4zM831 77h4v6h-4zM1032 123h4v6h-4zM1038 119h4v10h-4zM1044 123h4v6h-4zM946 177h4v6h-4zM952 173h4v10h-4zM958 177h4v6h-4zM294 172h4v6h-4zM300 168h4v10h-4zM306 172h4v6h-4zM796 80h4v6h-4zM802 76h4v10h-4zM808 80h4v6h-4zM1225 481h4v6h-4zM1231 477h4v10h-4zM1237 481h4v6h-4zM1112 102h4v6h-4zM1118 98h4v10h-4zM1124 102h4v6h-4zM183 486h4v6h-4zM189 482h4v10h-4zM195 486h4v6h-4zM1176 540h4v6h-4zM1182 536h4v10h-4zM1188 540h4v6h-4zM591 280h4v6h-4zM597 276h4v10h-4zM603 280h4v6h-4zM244 120h4v6h-4zM250 116h4v10h-4zM256 120h4v6h-4zM1189 334h4v6h-4zM1195 330h4v10h-4zM1201 334h4v6h-4zM300 513h4v6h-4zM306 509h4v10h-4zM312 513h4v6h-4zM1061 203h4v6h-4zM1067 199h4v10h-4zM1073 203h4v6h-4zM565 255h4v6h-4zM571 251h4v10h-4zM577 255h4v6h-4zM693 197h4v6h-4zM699 193h4v10h-4zM705 197h4v6h-4zM1199 217h4v6h-4zM1205 213h4v10h-4zM1211 217h4v6h-4zM521 136h4v6h-4zM527 132h4v10h-4zM533 136h4v6h-4zM805 86h4v6h-4zM811 82h4v10h-4zM817 86h4v6h-4zM942 151h4v6h-4zM948 147h4v10h-4zM954 151h4v6h-4zM115 137h4v6h-4zM121 133h4v10h-4zM127 137h4v6h-4zM1225 284h4v6h-4zM1231 280h4v10h-4zM1237 284h4v6h-4zM162 121h4v6h-4zM168 117h4v10h-4zM174 121h4v6h-4zM29 517h4v6h-4zM35 513h4v10h-4zM41 517h4v6h-4zM827 213h4v6h-4zM833 209h4v10h-4zM839 213h4v6h-4zM777 532h4v6h-4zM783 528h4v10h-4zM789 532h4v6h-4zM134 332h4v6h-4zM140 328h4v10h-4zM146 332h4v6h-4zM361 216h4v6h-4zM367 212h4v10h-4zM373 216h4v6h-4zM1125 263h4v6h-4zM1131 259h4v10h-4zM1137 263h4v6h-4zM727 286h4v6h-4zM733 282h4v10h-4zM739 286h4v6h-4zM89 104h4v6h-4zM95 100h4v10h-4zM101 104h4v6h-4zM17 249h4v6h-4zM23 245h4v10h-4zM29 249h4v6h-4zM215 118h4v6h-4zM221 114h4v10h-4zM227 118h4v6h-4zM282 474h4v6h-4zM288 470h4v10h-4zM294 474h4v6h-4zM949 86h4v6h-4zM955 82h4v10h-4zM961 86h4v6h-4zM603 78h4v6h-4zM609 74h4v10h-4zM615 78h4v6h-4zM46 253h4v6h-4zM52 249h4v10h-4zM58 253h4v6h-4zM317 239h4v6h-4zM323 235h4v10h-4zM329 239h4v6h-4zM204 91h4v6h-4zM210 87h4v10h-4zM216 91h4v6h-4zM506 477h4v6h-4zM512 473h4v10h-4zM518 477h4v6h-4zM592 266h4v6h-4zM598 262h4v10h-4zM604 266h4v6h-4zM90 373h4v6h-4zM96 369h4v10h-4zM102 373h4v6h-4zM528 243h4v6h-4zM534 239h4v10h-4zM540 243h4v6h-4zM24 489h4v6h-4zM30 485h4v10h-4zM36 489h4v6h-4zM198 500h4v6h-4zM204 496h4v10h-4zM210 500h4v6h-4zM708 241h4v6h-4zM714 237h4v10h-4zM720 241h4v6h-4zM129 89h4v6h-4zM135 85h4v10h-4zM141 89h4v6h-4zM595 192h4v6h-4zM601 188h4v10h-4zM607 192h4v6h-4zM1181 166h4v6h-4zM1187 162h4v10h-4zM1193 166h4v6h-4zM255 188h4v6h-4zM261 184h4v10h-4zM267 188h4v6h-4zM23 118h4v6h-4zM29 114h4v10h-4zM35 118h4v6h-4zM537 494h4v6h-4zM543 490h4v10h-4zM549 494h4v6h-4zM973 157h4v6h-4zM979 153h4v10h-4zM985 157h4v6h-4zM1182 211h4v6h-4zM1188 207h4v10h-4zM1194 211h4v6h-4zM1097 482h4v6h-4zM1103 478h4v10h-4zM1109 482h4v6h-4zM9 146h4v6h-4zM15 142h4v10h-4zM21 146h4v6h-4zM828 131h4v6h-4zM834 127h4v10h-4zM840 131h4v6h-4zM1205 102h4v6h-4zM1211 98h4v10h-4zM1217 102h4v6h-4zM503 519h4v6h-4zM509 515h4v10h-4zM515 519h4v6h-4zM592 521h4v6h-4zM598 517h4v10h-4zM604 521h4v6h-4zM1009 226h4v6h-4zM1015 222h4v10h-4zM1021 226h4v6h-4zM1133 211h4v6h-4zM1139 207h4v10h-4zM1145 211h4v6h-4zM558 263h4v6h-4zM564 259h4v10h-4zM570 263h4v6h-4zM924 126h4v6h-4zM930 122h4v10h-4zM936 126h4v6h-4zM297 522h4v6h-4zM303 518h4v10h-4zM309 522h4v6h-4zM21 346h4v6h-4zM27 342h4v10h-4zM33 346h4v6h-4zM15 109h4v6h-4zM21 105h4v10h-4zM27 109h4v6h-4zM979 198h4v6h-4zM985 194h4v10h-4zM991 198h4v6h-4zM496 131h4v6h-4zM502 127h4v10h-4zM508 131h4v6h-4zM522 208h4v6h-4zM528 204h4v10h-4zM534 208h4v6h-4zM916 143h4v6h-4zM922 139h4v10h-4zM928 143h4v6h-4zM846 84h4v6h-4zM852 80h4v10h-4zM858 84h4v6h-4zM567 176h4v6h-4zM573 172h4v10h-4zM579 176h4v6h-4zM1239 171h4v6h-4zM1245 167h4v10h-4zM1251 171h4v6h-4zM420 305h4v6h-4zM426 301h4v10h-4zM432 305h4v6h-4zM962 531h4v6h-4zM968 527h4v10h-4zM974 531h4v6h-4zM558 194h4v6h-4zM564 190h4v10h-4zM570 194h4v6h-4zM36 340h4v6h-4zM42 336h4v10h-4zM48 340h4v6h-4zM1071 127h4v6h-4zM1077 123h4v10h-4zM1083 127h4v6h-4zM514 206h4v6h-4zM520 202h4v10h-4zM526 206h4v6h-4zM1035 176h4v6h-4zM1041 172h4v10h-4zM1047 176h4v6h-4zM930 304h4v6h-4zM936 300h4v10h-4zM942 304h4v6h-4zM25 216h4v6h-4zM31 212h4v10h-4zM37 216h4v6h-4zM741 162h4v6h-4zM747 158h4v10h-4zM753 162h4v6h-4zM688 154h4v6h-4zM694 150h4v10h-4zM700 154h4v6h-4zM522 171h4v6h-4zM528 167h4v10h-4zM534 171h4v6h-4zM837 466h4v6h-4zM843 462h4v10h-4zM849 466h4v6h-4zM212 91h4v6h-4zM218 87h4v10h-4zM224 91h4v6h-4zM1209 398h4v6h-4zM1215 394h4v10h-4zM1221 398h4v6h-4zM413 297h4v6h-4zM419 293h4v10h-4zM425 297h4v6h-4zM612 505h4v6h-4zM618 501h4v10h-4zM624 505h4v6h-4zM603 542h4v6h-4zM609 538h4v10h-4zM615 542h4v6h-4zM217 510h4v6h-4zM223 506h4v10h-4zM229 510h4v6h-4zM299 171h4v6h-4zM305 167h4v10h-4zM311 171h4v6h-4zM1241 169h4v6h-4zM1247 165h4v10h-4zM1253 169h4v6h-4zM806 128h4v6h-4zM812 124h4v10h-4zM818 128h4v6h-4zM865 256h4v6h-4zM871 252h4v10h-4zM877 256h4v6h-4zM1109 159h4v6h-4zM1115 155h4v10h-4zM1121 159h4v6h-4zM851 205h4v6h-4zM857 201h4v10h-4zM863 205h4v6h-4zM1150 170h4v6h-4zM1156 166h4v10h-4zM1162 170h4v6h-4zM823 523h4v6h-4zM829 519h4v10h-4zM835 523h4v6h-4z" fill="#33533C"></path><path d="M109 324h8v4h-8zM575 301h8v4h-8zM734 272h8v4h-8zM325 102h8v4h-8zM349 311h8v4h-8zM453 99h8v4h-8zM484 515h8v4h-8zM845 306h8v4h-8zM488 161h8v4h-8zM349 271h8v4h-8zM569 191h8v4h-8zM898 256h8v4h-8zM859 253h8v4h-8zM1170 230h8v4h-8zM895 99h8v4h-8zM162 276h8v4h-8zM550 520h8v4h-8zM441 238h8v4h-8zM798 523h8v4h-8zM173 107h8v4h-8zM23 182h8v4h-8zM1225 219h8v4h-8zM802 180h8v4h-8zM85 215h8v4h-8zM403 150h8v4h-8zM336 152h8v4h-8zM418 530h8v4h-8zM908 210h8v4h-8zM58 392h8v4h-8zM399 313h8v4h-8zM598 145h8v4h-8zM77 235h8v4h-8zM14 462h8v4h-8zM1099 300h8v4h-8zM471 133h8v4h-8zM766 250h8v4h-8zM120 317h8v4h-8zM1192 142h8v4h-8zM847 255h8v4h-8zM1046 80h8v4h-8zM552 114h8v4h-8zM1213 319h8v4h-8zM184 224h8v4h-8zM514 115h8v4h-8zM210 530h56v4h-56zM218 542h40v4h-40zM797 203h56v4h-56zM805 215h40v4h-40zM851 508h56v4h-56zM859 520h40v4h-40zM426 231h56v4h-56zM434 243h40v4h-40zM145 111h56v4h-56zM153 123h40v4h-40zM730 154h56v4h-56zM738 166h40v4h-40zM1214 419h56v4h-56zM1222 431h40v4h-40zM378 217h56v4h-56zM386 229h40v4h-40zM886 93h56v4h-56zM894 105h40v4h-40zM658 142h56v4h-56zM666 154h40v4h-40z" fill="#5F7050"></path><path d="M802 268h6v6h-6zM656 80h6v6h-6zM1233 237h6v6h-6zM440 121h6v6h-6zM477 138h6v6h-6zM867 123h6v6h-6zM1157 139h6v6h-6zM503 210h6v6h-6zM1158 272h6v6h-6zM28 482h6v6h-6zM656 477h6v6h-6zM722 266h6v6h-6zM60 80h6v6h-6zM564 236h6v6h-6z" fill="#7C4768"></path><path d="M792 490h6v6h-6zM88 116h6v6h-6zM1060 506h6v6h-6zM976 194h6v6h-6zM738 292h6v6h-6zM927 168h6v6h-6zM273 512h6v6h-6zM448 107h6v6h-6zM1185 479h6v6h-6z" fill="#7C6840"></path><rect x="160" y="330" width="960" height="120" fill="#5B4340" stroke="#25223A" stroke-width="3"></rect><path d="M161.5 331.5h957v12h-957z" fill="#33533C"></path><path d="M161.5 343.5h957v6h-957z" fill="#443236"></path><path d="M176 331.5h22v6h-22zM234 331.5h14v6h-14zM292 331.5h18v6h-18zM350 331.5h22v6h-22zM408 331.5h14v6h-14zM466 331.5h18v6h-18zM524 331.5h22v6h-22zM582 331.5h14v6h-14zM640 331.5h18v6h-18zM698 331.5h22v6h-22zM756 331.5h14v6h-14zM814 331.5h18v6h-18zM872 331.5h22v6h-22zM930 331.5h14v6h-14zM988 331.5h18v6h-18zM1046 331.5h22v6h-22z" fill="#446544"></path><path d="M842 359h4v4h-4zM596 362h4v4h-4zM882 396h4v4h-4zM625 370h4v4h-4zM417 402h4v4h-4zM353 363h4v4h-4zM836 396h4v4h-4zM910 430h4v4h-4zM473 414h4v4h-4zM439 412h4v4h-4zM662 426h4v4h-4zM674 357h4v4h-4zM988 382h4v4h-4zM1043 421h4v4h-4zM563 416h4v4h-4zM316 387h4v4h-4zM844 356h4v4h-4zM180 396h4v4h-4zM975 407h4v4h-4zM806 422h4v4h-4zM715 405h4v4h-4zM238 387h4v4h-4zM666 426h4v4h-4zM556 395h4v4h-4zM634 404h4v4h-4zM894 428h4v4h-4zM790 387h4v4h-4zM813 415h4v4h-4zM606 438h4v4h-4zM991 416h4v4h-4zM802 436h4v4h-4zM884 361h4v4h-4zM234 401h4v4h-4zM977 385h4v4h-4zM674 380h4v4h-4zM603 402h4v4h-4zM709 389h4v4h-4zM875 371h4v4h-4zM1058 410h4v4h-4zM870 421h4v4h-4zM229 391h4v4h-4zM316 414h4v4h-4zM892 408h4v4h-4zM1090 439h4v4h-4zM1084 405h4v4h-4zM996 436h4v4h-4zM929 383h4v4h-4zM754 435h4v4h-4zM536 406h4v4h-4zM303 409h4v4h-4zM681 378h4v4h-4zM992 360h4v4h-4zM961 363h4v4h-4zM567 431h4v4h-4zM199 412h4v4h-4zM268 380h4v4h-4zM1096 400h4v4h-4zM339 356h4v4h-4zM319 410h4v4h-4zM758 426h4v4h-4z" fill="#443236"></path><path d="M800 421h8v6h-8zM293 375h8v6h-8zM295 406h8v6h-8zM788 404h8v6h-8zM835 384h8v6h-8zM1036 367h8v6h-8zM1048 375h8v6h-8zM525 398h8v6h-8zM574 402h8v6h-8zM430 411h8v6h-8zM191 395h8v6h-8zM881 386h8v6h-8z" fill="#494861"></path><path d="M161.5 443h957v5.5h-957z" fill="#696368"></path></g>
<rect x="361.5" y="65.5" width="557" height="589" rx="12" fill="#2B2740" stroke="#1B1B2F" stroke-width="3"></rect><path d="M539 94h28v7h-28zM539 101h7v7h-7zM567 101h7v7h-7zM539 108h7v7h-7zM567 108h7v7h-7zM539 115h28v7h-28zM539 122h7v7h-7zM539 129h7v7h-7zM539 136h7v7h-7zM588 94h21v7h-21zM581 101h7v7h-7zM609 101h7v7h-7zM581 108h7v7h-7zM609 108h7v7h-7zM581 115h35v7h-35zM581 122h7v7h-7zM609 122h7v7h-7zM581 129h7v7h-7zM609 129h7v7h-7zM581 136h7v7h-7zM609 136h7v7h-7zM623 94h7v7h-7zM651 94h7v7h-7zM623 101h7v7h-7zM651 101h7v7h-7zM623 108h7v7h-7zM651 108h7v7h-7zM623 115h7v7h-7zM651 115h7v7h-7zM623 122h7v7h-7zM651 122h7v7h-7zM623 129h7v7h-7zM651 129h7v7h-7zM630 136h21v7h-21zM672 94h28v7h-28zM665 101h7v7h-7zM665 108h7v7h-7zM672 115h21v7h-21zM693 122h7v7h-7zM693 129h7v7h-7zM665 136h28v7h-28zM707 94h35v7h-35zM707 101h7v7h-7zM707 108h7v7h-7zM707 115h28v7h-28zM707 122h7v7h-7zM707 129h7v7h-7zM707 136h35v7h-35zM541 96h28v7h-28zM541 103h7v7h-7zM569 103h7v7h-7zM541 110h7v7h-7zM569 110h7v7h-7zM541 117h28v7h-28zM541 124h7v7h-7zM541 131h7v7h-7zM541 138h7v7h-7zM590 96h21v7h-21zM583 103h7v7h-7zM611 103h7v7h-7zM583 110h7v7h-7zM611 110h7v7h-7zM583 117h35v7h-35zM583 124h7v7h-7zM611 124h7v7h-7zM583 131h7v7h-7zM611 131h7v7h-7zM583 138h7v7h-7zM611 138h7v7h-7zM625 96h7v7h-7zM653 96h7v7h-7zM625 103h7v7h-7zM653 103h7v7h-7zM625 110h7v7h-7zM653 110h7v7h-7zM625 117h7v7h-7zM653 117h7v7h-7zM625 124h7v7h-7zM653 124h7v7h-7zM625 131h7v7h-7zM653 131h7v7h-7zM632 138h21v7h-21zM674 96h28v7h-28zM667 103h7v7h-7zM667 110h7v7h-7zM674 117h21v7h-21zM695 124h7v7h-7zM695 131h7v7h-7zM667 138h28v7h-28zM709 96h35v7h-35zM709 103h7v7h-7zM709 110h7v7h-7zM709 117h28v7h-28zM709 124h7v7h-7zM709 131h7v7h-7zM709 138h35v7h-35z" fill="#1B1B2F" stroke="#1B1B2F" stroke-width="6"></path><path d="M539 94h28v7h-28zM539 101h7v7h-7zM567 101h7v7h-7zM539 108h7v7h-7zM567 108h7v7h-7zM539 115h28v7h-28zM539 122h7v7h-7zM539 129h7v7h-7zM539 136h7v7h-7zM588 94h21v7h-21zM581 101h7v7h-7zM609 101h7v7h-7zM581 108h7v7h-7zM609 108h7v7h-7zM581 115h35v7h-35zM581 122h7v7h-7zM609 122h7v7h-7zM581 129h7v7h-7zM609 129h7v7h-7zM581 136h7v7h-7zM609 136h7v7h-7zM623 94h7v7h-7zM651 94h7v7h-7zM623 101h7v7h-7zM651 101h7v7h-7zM623 108h7v7h-7zM651 108h7v7h-7zM623 115h7v7h-7zM651 115h7v7h-7zM623 122h7v7h-7zM651 122h7v7h-7zM623 129h7v7h-7zM651 129h7v7h-7zM630 136h21v7h-21zM672 94h28v7h-28zM665 101h7v7h-7zM665 108h7v7h-7zM672 115h21v7h-21zM693 122h7v7h-7zM693 129h7v7h-7zM665 136h28v7h-28zM707 94h35v7h-35zM707 101h7v7h-7zM707 108h7v7h-7zM707 115h28v7h-28zM707 122h7v7h-7zM707 129h7v7h-7zM707 136h35v7h-35zM541 96h28v7h-28zM541 103h7v7h-7zM569 103h7v7h-7zM541 110h7v7h-7zM569 110h7v7h-7zM541 117h28v7h-28zM541 124h7v7h-7zM541 131h7v7h-7zM541 138h7v7h-7zM590 96h21v7h-21zM583 103h7v7h-7zM611 103h7v7h-7zM583 110h7v7h-7zM611 110h7v7h-7zM583 117h35v7h-35zM583 124h7v7h-7zM611 124h7v7h-7zM583 131h7v7h-7zM611 131h7v7h-7zM583 138h7v7h-7zM611 138h7v7h-7zM625 96h7v7h-7zM653 96h7v7h-7zM625 103h7v7h-7zM653 103h7v7h-7zM625 110h7v7h-7zM653 110h7v7h-7zM625 117h7v7h-7zM653 117h7v7h-7zM625 124h7v7h-7zM653 124h7v7h-7zM625 131h7v7h-7zM653 131h7v7h-7zM632 138h21v7h-21zM674 96h28v7h-28zM667 103h7v7h-7zM667 110h7v7h-7zM674 117h21v7h-21zM695 124h7v7h-7zM695 131h7v7h-7zM667 138h28v7h-28zM709 96h35v7h-35zM709 103h7v7h-7zM709 110h7v7h-7zM709 117h28v7h-28zM709 124h7v7h-7zM709 131h7v7h-7zM709 138h35v7h-35z" fill="#2A59B8"></path><path d="M537 92h28v7h-28zM537 99h7v7h-7zM565 99h7v7h-7zM537 106h7v7h-7zM565 106h7v7h-7zM537 113h28v7h-28zM537 120h7v7h-7zM537 127h7v7h-7zM537 134h7v7h-7zM586 92h21v7h-21zM579 99h7v7h-7zM607 99h7v7h-7zM579 106h7v7h-7zM607 106h7v7h-7zM579 113h35v7h-35zM579 120h7v7h-7zM607 120h7v7h-7zM579 127h7v7h-7zM607 127h7v7h-7zM579 134h7v7h-7zM607 134h7v7h-7zM621 92h7v7h-7zM649 92h7v7h-7zM621 99h7v7h-7zM649 99h7v7h-7zM621 106h7v7h-7zM649 106h7v7h-7zM621 113h7v7h-7zM649 113h7v7h-7zM621 120h7v7h-7zM649 120h7v7h-7zM621 127h7v7h-7zM649 127h7v7h-7zM628 134h21v7h-21zM670 92h28v7h-28zM663 99h7v7h-7zM663 106h7v7h-7zM670 113h21v7h-21zM691 120h7v7h-7zM691 127h7v7h-7zM663 134h28v7h-28zM705 92h35v7h-35zM705 99h7v7h-7zM705 106h7v7h-7zM705 113h28v7h-28zM705 120h7v7h-7zM705 127h7v7h-7zM705 134h35v7h-35z" fill="#1B1B2F" stroke="#1B1B2F" stroke-width="6"></path><path d="M537 92h28v7h-28zM537 99h7v7h-7zM565 99h7v7h-7zM537 106h7v7h-7zM565 106h7v7h-7zM537 113h28v7h-28zM537 120h7v7h-7zM537 127h7v7h-7zM537 134h7v7h-7zM586 92h21v7h-21zM579 99h7v7h-7zM607 99h7v7h-7zM579 106h7v7h-7zM607 106h7v7h-7zM579 113h35v7h-35zM579 120h7v7h-7zM607 120h7v7h-7zM579 127h7v7h-7zM607 127h7v7h-7zM579 134h7v7h-7zM607 134h7v7h-7zM621 92h7v7h-7zM649 92h7v7h-7zM621 99h7v7h-7zM649 99h7v7h-7zM621 106h7v7h-7zM649 106h7v7h-7zM621 113h7v7h-7zM649 113h7v7h-7zM621 120h7v7h-7zM649 120h7v7h-7zM621 127h7v7h-7zM649 127h7v7h-7zM628 134h21v7h-21zM670 92h28v7h-28zM663 99h7v7h-7zM663 106h7v7h-7zM670 113h21v7h-21zM691 120h7v7h-7zM691 127h7v7h-7zM663 134h28v7h-28zM705 92h35v7h-35zM705 99h7v7h-7zM705 106h7v7h-7zM705 113h28v7h-28zM705 120h7v7h-7zM705 127h7v7h-7zM705 134h35v7h-35z" fill="#FFFFFF"></path><rect x="441.5" y="173.5" width="397" height="93" rx="12" fill="#3F9A36" stroke="#1B1B2F" stroke-width="3"></rect><rect x="443" y="175" width="394" height="82" rx="10" fill="#6CCB4A"></rect><path d="M451 182h36v5h-31v5h-5z" fill="#B4E86A"></path><path d="M528 199h15v5h-15zM523 204h5v5h-5zM543 204h5v5h-5zM523 209h5v5h-5zM523 214h5v5h-5zM523 219h5v5h-5zM523 224h5v5h-5zM543 224h5v5h-5zM528 229h15v5h-15zM558 199h15v5h-15zM553 204h5v5h-5zM573 204h5v5h-5zM553 209h5v5h-5zM573 209h5v5h-5zM553 214h5v5h-5zM573 214h5v5h-5zM553 219h5v5h-5zM573 219h5v5h-5zM553 224h5v5h-5zM573 224h5v5h-5zM558 229h15v5h-15zM583 199h5v5h-5zM603 199h5v5h-5zM583 204h10v5h-10zM603 204h5v5h-5zM583 209h5v5h-5zM593 209h5v5h-5zM603 209h5v5h-5zM583 214h5v5h-5zM593 214h5v5h-5zM603 214h5v5h-5zM583 219h5v5h-5zM598 219h10v5h-10zM583 224h5v5h-5zM603 224h5v5h-5zM583 229h5v5h-5zM603 229h5v5h-5zM613 199h25v5h-25zM623 204h5v5h-5zM623 209h5v5h-5zM623 214h5v5h-5zM623 219h5v5h-5zM623 224h5v5h-5zM623 229h5v5h-5zM643 199h25v5h-25zM653 204h5v5h-5zM653 209h5v5h-5zM653 214h5v5h-5zM653 219h5v5h-5zM653 224h5v5h-5zM643 229h25v5h-25zM673 199h5v5h-5zM693 199h5v5h-5zM673 204h10v5h-10zM693 204h5v5h-5zM673 209h5v5h-5zM683 209h5v5h-5zM693 209h5v5h-5zM673 214h5v5h-5zM683 214h5v5h-5zM693 214h5v5h-5zM673 219h5v5h-5zM688 219h10v5h-10zM673 224h5v5h-5zM693 224h5v5h-5zM673 229h5v5h-5zM693 229h5v5h-5zM703 199h5v5h-5zM723 199h5v5h-5zM703 204h5v5h-5zM723 204h5v5h-5zM703 209h5v5h-5zM723 209h5v5h-5zM703 214h5v5h-5zM723 214h5v5h-5zM703 219h5v5h-5zM723 219h5v5h-5zM703 224h5v5h-5zM723 224h5v5h-5zM708 229h15v5h-15zM733 199h25v5h-25zM733 204h5v5h-5zM733 209h5v5h-5zM733 214h20v5h-20zM733 219h5v5h-5zM733 224h5v5h-5zM733 229h25v5h-25zM530 201h15v5h-15zM525 206h5v5h-5zM545 206h5v5h-5zM525 211h5v5h-5zM525 216h5v5h-5zM525 221h5v5h-5zM525 226h5v5h-5zM545 226h5v5h-5zM530 231h15v5h-15zM560 201h15v5h-15zM555 206h5v5h-5zM575 206h5v5h-5zM555 211h5v5h-5zM575 211h5v5h-5zM555 216h5v5h-5zM575 216h5v5h-5zM555 221h5v5h-5zM575 221h5v5h-5zM555 226h5v5h-5zM575 226h5v5h-5zM560 231h15v5h-15zM585 201h5v5h-5zM605 201h5v5h-5zM585 206h10v5h-10zM605 206h5v5h-5zM585 211h5v5h-5zM595 211h5v5h-5zM605 211h5v5h-5zM585 216h5v5h-5zM595 216h5v5h-5zM605 216h5v5h-5zM585 221h5v5h-5zM600 221h10v5h-10zM585 226h5v5h-5zM605 226h5v5h-5zM585 231h5v5h-5zM605 231h5v5h-5zM615 201h25v5h-25zM625 206h5v5h-5zM625 211h5v5h-5zM625 216h5v5h-5zM625 221h5v5h-5zM625 226h5v5h-5zM625 231h5v5h-5zM645 201h25v5h-25zM655 206h5v5h-5zM655 211h5v5h-5zM655 216h5v5h-5zM655 221h5v5h-5zM655 226h5v5h-5zM645 231h25v5h-25zM675 201h5v5h-5zM695 201h5v5h-5zM675 206h10v5h-10zM695 206h5v5h-5zM675 211h5v5h-5zM685 211h5v5h-5zM695 211h5v5h-5zM675 216h5v5h-5zM685 216h5v5h-5zM695 216h5v5h-5zM675 221h5v5h-5zM690 221h10v5h-10zM675 226h5v5h-5zM695 226h5v5h-5zM675 231h5v5h-5zM695 231h5v5h-5zM705 201h5v5h-5zM725 201h5v5h-5zM705 206h5v5h-5zM725 206h5v5h-5zM705 211h5v5h-5zM725 211h5v5h-5zM705 216h5v5h-5zM725 216h5v5h-5zM705 221h5v5h-5zM725 221h5v5h-5zM705 226h5v5h-5zM725 226h5v5h-5zM710 231h15v5h-15zM735 201h25v5h-25zM735 206h5v5h-5zM735 211h5v5h-5zM735 216h20v5h-20zM735 221h5v5h-5zM735 226h5v5h-5zM735 231h25v5h-25z" fill="#1B1B2F" stroke="#1B1B2F" stroke-width="6"></path><path d="M528 199h15v5h-15zM523 204h5v5h-5zM543 204h5v5h-5zM523 209h5v5h-5zM523 214h5v5h-5zM523 219h5v5h-5zM523 224h5v5h-5zM543 224h5v5h-5zM528 229h15v5h-15zM558 199h15v5h-15zM553 204h5v5h-5zM573 204h5v5h-5zM553 209h5v5h-5zM573 209h5v5h-5zM553 214h5v5h-5zM573 214h5v5h-5zM553 219h5v5h-5zM573 219h5v5h-5zM553 224h5v5h-5zM573 224h5v5h-5zM558 229h15v5h-15zM583 199h5v5h-5zM603 199h5v5h-5zM583 204h10v5h-10zM603 204h5v5h-5zM583 209h5v5h-5zM593 209h5v5h-5zM603 209h5v5h-5zM583 214h5v5h-5zM593 214h5v5h-5zM603 214h5v5h-5zM583 219h5v5h-5zM598 219h10v5h-10zM583 224h5v5h-5zM603 224h5v5h-5zM583 229h5v5h-5zM603 229h5v5h-5zM613 199h25v5h-25zM623 204h5v5h-5zM623 209h5v5h-5zM623 214h5v5h-5zM623 219h5v5h-5zM623 224h5v5h-5zM623 229h5v5h-5zM643 199h25v5h-25zM653 204h5v5h-5zM653 209h5v5h-5zM653 214h5v5h-5zM653 219h5v5h-5zM653 224h5v5h-5zM643 229h25v5h-25zM673 199h5v5h-5zM693 199h5v5h-5zM673 204h10v5h-10zM693 204h5v5h-5zM673 209h5v5h-5zM683 209h5v5h-5zM693 209h5v5h-5zM673 214h5v5h-5zM683 214h5v5h-5zM693 214h5v5h-5zM673 219h5v5h-5zM688 219h10v5h-10zM673 224h5v5h-5zM693 224h5v5h-5zM673 229h5v5h-5zM693 229h5v5h-5zM703 199h5v5h-5zM723 199h5v5h-5zM703 204h5v5h-5zM723 204h5v5h-5zM703 209h5v5h-5zM723 209h5v5h-5zM703 214h5v5h-5zM723 214h5v5h-5zM703 219h5v5h-5zM723 219h5v5h-5zM703 224h5v5h-5zM723 224h5v5h-5zM708 229h15v5h-15zM733 199h25v5h-25zM733 204h5v5h-5zM733 209h5v5h-5zM733 214h20v5h-20zM733 219h5v5h-5zM733 224h5v5h-5zM733 229h25v5h-25zM530 201h15v5h-15zM525 206h5v5h-5zM545 206h5v5h-5zM525 211h5v5h-5zM525 216h5v5h-5zM525 221h5v5h-5zM525 226h5v5h-5zM545 226h5v5h-5zM530 231h15v5h-15zM560 201h15v5h-15zM555 206h5v5h-5zM575 206h5v5h-5zM555 211h5v5h-5zM575 211h5v5h-5zM555 216h5v5h-5zM575 216h5v5h-5zM555 221h5v5h-5zM575 221h5v5h-5zM555 226h5v5h-5zM575 226h5v5h-5zM560 231h15v5h-15zM585 201h5v5h-5zM605 201h5v5h-5zM585 206h10v5h-10zM605 206h5v5h-5zM585 211h5v5h-5zM595 211h5v5h-5zM605 211h5v5h-5zM585 216h5v5h-5zM595 216h5v5h-5zM605 216h5v5h-5zM585 221h5v5h-5zM600 221h10v5h-10zM585 226h5v5h-5zM605 226h5v5h-5zM585 231h5v5h-5zM605 231h5v5h-5zM615 201h25v5h-25zM625 206h5v5h-5zM625 211h5v5h-5zM625 216h5v5h-5zM625 221h5v5h-5zM625 226h5v5h-5zM625 231h5v5h-5zM645 201h25v5h-25zM655 206h5v5h-5zM655 211h5v5h-5zM655 216h5v5h-5zM655 221h5v5h-5zM655 226h5v5h-5zM645 231h25v5h-25zM675 201h5v5h-5zM695 201h5v5h-5zM675 206h10v5h-10zM695 206h5v5h-5zM675 211h5v5h-5zM685 211h5v5h-5zM695 211h5v5h-5zM675 216h5v5h-5zM685 216h5v5h-5zM695 216h5v5h-5zM675 221h5v5h-5zM690 221h10v5h-10zM675 226h5v5h-5zM695 226h5v5h-5zM675 231h5v5h-5zM695 231h5v5h-5zM705 201h5v5h-5zM725 201h5v5h-5zM705 206h5v5h-5zM725 206h5v5h-5zM705 211h5v5h-5zM725 211h5v5h-5zM705 216h5v5h-5zM725 216h5v5h-5zM705 221h5v5h-5zM725 221h5v5h-5zM705 226h5v5h-5zM725 226h5v5h-5zM710 231h15v5h-15zM735 201h25v5h-25zM735 206h5v5h-5zM735 211h5v5h-5zM735 216h20v5h-20zM735 221h5v5h-5zM735 226h5v5h-5zM735 231h25v5h-25z" fill="#3F9A36"></path><path d="M526 197h15v5h-15zM521 202h5v5h-5zM541 202h5v5h-5zM521 207h5v5h-5zM521 212h5v5h-5zM521 217h5v5h-5zM521 222h5v5h-5zM541 222h5v5h-5zM526 227h15v5h-15zM556 197h15v5h-15zM551 202h5v5h-5zM571 202h5v5h-5zM551 207h5v5h-5zM571 207h5v5h-5zM551 212h5v5h-5zM571 212h5v5h-5zM551 217h5v5h-5zM571 217h5v5h-5zM551 222h5v5h-5zM571 222h5v5h-5zM556 227h15v5h-15zM581 197h5v5h-5zM601 197h5v5h-5zM581 202h10v5h-10zM601 202h5v5h-5zM581 207h5v5h-5zM591 207h5v5h-5zM601 207h5v5h-5zM581 212h5v5h-5zM591 212h5v5h-5zM601 212h5v5h-5zM581 217h5v5h-5zM596 217h10v5h-10zM581 222h5v5h-5zM601 222h5v5h-5zM581 227h5v5h-5zM601 227h5v5h-5zM611 197h25v5h-25zM621 202h5v5h-5zM621 207h5v5h-5zM621 212h5v5h-5zM621 217h5v5h-5zM621 222h5v5h-5zM621 227h5v5h-5zM641 197h25v5h-25zM651 202h5v5h-5zM651 207h5v5h-5zM651 212h5v5h-5zM651 217h5v5h-5zM651 222h5v5h-5zM641 227h25v5h-25zM671 197h5v5h-5zM691 197h5v5h-5zM671 202h10v5h-10zM691 202h5v5h-5zM671 207h5v5h-5zM681 207h5v5h-5zM691 207h5v5h-5zM671 212h5v5h-5zM681 212h5v5h-5zM691 212h5v5h-5zM671 217h5v5h-5zM686 217h10v5h-10zM671 222h5v5h-5zM691 222h5v5h-5zM671 227h5v5h-5zM691 227h5v5h-5zM701 197h5v5h-5zM721 197h5v5h-5zM701 202h5v5h-5zM721 202h5v5h-5zM701 207h5v5h-5zM721 207h5v5h-5zM701 212h5v5h-5zM721 212h5v5h-5zM701 217h5v5h-5zM721 217h5v5h-5zM701 222h5v5h-5zM721 222h5v5h-5zM706 227h15v5h-15zM731 197h25v5h-25zM731 202h5v5h-5zM731 207h5v5h-5zM731 212h20v5h-20zM731 217h5v5h-5zM731 222h5v5h-5zM731 227h25v5h-25z" fill="#1B1B2F" stroke="#1B1B2F" stroke-width="6"></path><path d="M526 197h15v5h-15zM521 202h5v5h-5zM541 202h5v5h-5zM521 207h5v5h-5zM521 212h5v5h-5zM521 217h5v5h-5zM521 222h5v5h-5zM541 222h5v5h-5zM526 227h15v5h-15zM556 197h15v5h-15zM551 202h5v5h-5zM571 202h5v5h-5zM551 207h5v5h-5zM571 207h5v5h-5zM551 212h5v5h-5zM571 212h5v5h-5zM551 217h5v5h-5zM571 217h5v5h-5zM551 222h5v5h-5zM571 222h5v5h-5zM556 227h15v5h-15zM581 197h5v5h-5zM601 197h5v5h-5zM581 202h10v5h-10zM601 202h5v5h-5zM581 207h5v5h-5zM591 207h5v5h-5zM601 207h5v5h-5zM581 212h5v5h-5zM591 212h5v5h-5zM601 212h5v5h-5zM581 217h5v5h-5zM596 217h10v5h-10zM581 222h5v5h-5zM601 222h5v5h-5zM581 227h5v5h-5zM601 227h5v5h-5zM611 197h25v5h-25zM621 202h5v5h-5zM621 207h5v5h-5zM621 212h5v5h-5zM621 217h5v5h-5zM621 222h5v5h-5zM621 227h5v5h-5zM641 197h25v5h-25zM651 202h5v5h-5zM651 207h5v5h-5zM651 212h5v5h-5zM651 217h5v5h-5zM651 222h5v5h-5zM641 227h25v5h-25zM671 197h5v5h-5zM691 197h5v5h-5zM671 202h10v5h-10zM691 202h5v5h-5zM671 207h5v5h-5zM681 207h5v5h-5zM691 207h5v5h-5zM671 212h5v5h-5zM681 212h5v5h-5zM691 212h5v5h-5zM671 217h5v5h-5zM686 217h10v5h-10zM671 222h5v5h-5zM691 222h5v5h-5zM671 227h5v5h-5zM691 227h5v5h-5zM701 197h5v5h-5zM721 197h5v5h-5zM701 202h5v5h-5zM721 202h5v5h-5zM701 207h5v5h-5zM721 207h5v5h-5zM701 212h5v5h-5zM721 212h5v5h-5zM701 217h5v5h-5zM721 217h5v5h-5zM701 222h5v5h-5zM721 222h5v5h-5zM706 227h15v5h-15zM731 197h25v5h-25zM731 202h5v5h-5zM731 207h5v5h-5zM731 212h20v5h-20zM731 217h5v5h-5zM731 222h5v5h-5zM731 227h25v5h-25z" fill="#FFFFFF"></path><rect x="441.5" y="285.5" width="397" height="93" rx="12" fill="#2A59B8" stroke="#1B1B2F" stroke-width="3"></rect><rect x="443" y="287" width="394" height="82" rx="10" fill="#3A7BFF"></rect><path d="M451 294h36v5h-31v5h-5z" fill="#9FDCFF"></path><path d="M538 311h20v5h-20zM538 316h5v5h-5zM558 316h5v5h-5zM538 321h5v5h-5zM558 321h5v5h-5zM538 326h20v5h-20zM538 331h5v5h-5zM548 331h5v5h-5zM538 336h5v5h-5zM553 336h5v5h-5zM538 341h5v5h-5zM558 341h5v5h-5zM568 311h25v5h-25zM568 316h5v5h-5zM568 321h5v5h-5zM568 326h20v5h-20zM568 331h5v5h-5zM568 336h5v5h-5zM568 341h25v5h-25zM603 311h20v5h-20zM598 316h5v5h-5zM598 321h5v5h-5zM603 326h15v5h-15zM618 331h5v5h-5zM618 336h5v5h-5zM598 341h20v5h-20zM628 311h25v5h-25zM638 316h5v5h-5zM638 321h5v5h-5zM638 326h5v5h-5zM638 331h5v5h-5zM638 336h5v5h-5zM638 341h5v5h-5zM663 311h15v5h-15zM658 316h5v5h-5zM678 316h5v5h-5zM658 321h5v5h-5zM678 321h5v5h-5zM658 326h25v5h-25zM658 331h5v5h-5zM678 331h5v5h-5zM658 336h5v5h-5zM678 336h5v5h-5zM658 341h5v5h-5zM678 341h5v5h-5zM688 311h20v5h-20zM688 316h5v5h-5zM708 316h5v5h-5zM688 321h5v5h-5zM708 321h5v5h-5zM688 326h20v5h-20zM688 331h5v5h-5zM698 331h5v5h-5zM688 336h5v5h-5zM703 336h5v5h-5zM688 341h5v5h-5zM708 341h5v5h-5zM718 311h25v5h-25zM728 316h5v5h-5zM728 321h5v5h-5zM728 326h5v5h-5zM728 331h5v5h-5zM728 336h5v5h-5zM728 341h5v5h-5zM540 313h20v5h-20zM540 318h5v5h-5zM560 318h5v5h-5zM540 323h5v5h-5zM560 323h5v5h-5zM540 328h20v5h-20zM540 333h5v5h-5zM550 333h5v5h-5zM540 338h5v5h-5zM555 338h5v5h-5zM540 343h5v5h-5zM560 343h5v5h-5zM570 313h25v5h-25zM570 318h5v5h-5zM570 323h5v5h-5zM570 328h20v5h-20zM570 333h5v5h-5zM570 338h5v5h-5zM570 343h25v5h-25zM605 313h20v5h-20zM600 318h5v5h-5zM600 323h5v5h-5zM605 328h15v5h-15zM620 333h5v5h-5zM620 338h5v5h-5zM600 343h20v5h-20zM630 313h25v5h-25zM640 318h5v5h-5zM640 323h5v5h-5zM640 328h5v5h-5zM640 333h5v5h-5zM640 338h5v5h-5zM640 343h5v5h-5zM665 313h15v5h-15zM660 318h5v5h-5zM680 318h5v5h-5zM660 323h5v5h-5zM680 323h5v5h-5zM660 328h25v5h-25zM660 333h5v5h-5zM680 333h5v5h-5zM660 338h5v5h-5zM680 338h5v5h-5zM660 343h5v5h-5zM680 343h5v5h-5zM690 313h20v5h-20zM690 318h5v5h-5zM710 318h5v5h-5zM690 323h5v5h-5zM710 323h5v5h-5zM690 328h20v5h-20zM690 333h5v5h-5zM700 333h5v5h-5zM690 338h5v5h-5zM705 338h5v5h-5zM690 343h5v5h-5zM710 343h5v5h-5zM720 313h25v5h-25zM730 318h5v5h-5zM730 323h5v5h-5zM730 328h5v5h-5zM730 333h5v5h-5zM730 338h5v5h-5zM730 343h5v5h-5z" fill="#1B1B2F" stroke="#1B1B2F" stroke-width="6"></path><path d="M538 311h20v5h-20zM538 316h5v5h-5zM558 316h5v5h-5zM538 321h5v5h-5zM558 321h5v5h-5zM538 326h20v5h-20zM538 331h5v5h-5zM548 331h5v5h-5zM538 336h5v5h-5zM553 336h5v5h-5zM538 341h5v5h-5zM558 341h5v5h-5zM568 311h25v5h-25zM568 316h5v5h-5zM568 321h5v5h-5zM568 326h20v5h-20zM568 331h5v5h-5zM568 336h5v5h-5zM568 341h25v5h-25zM603 311h20v5h-20zM598 316h5v5h-5zM598 321h5v5h-5zM603 326h15v5h-15zM618 331h5v5h-5zM618 336h5v5h-5zM598 341h20v5h-20zM628 311h25v5h-25zM638 316h5v5h-5zM638 321h5v5h-5zM638 326h5v5h-5zM638 331h5v5h-5zM638 336h5v5h-5zM638 341h5v5h-5zM663 311h15v5h-15zM658 316h5v5h-5zM678 316h5v5h-5zM658 321h5v5h-5zM678 321h5v5h-5zM658 326h25v5h-25zM658 331h5v5h-5zM678 331h5v5h-5zM658 336h5v5h-5zM678 336h5v5h-5zM658 341h5v5h-5zM678 341h5v5h-5zM688 311h20v5h-20zM688 316h5v5h-5zM708 316h5v5h-5zM688 321h5v5h-5zM708 321h5v5h-5zM688 326h20v5h-20zM688 331h5v5h-5zM698 331h5v5h-5zM688 336h5v5h-5zM703 336h5v5h-5zM688 341h5v5h-5zM708 341h5v5h-5zM718 311h25v5h-25zM728 316h5v5h-5zM728 321h5v5h-5zM728 326h5v5h-5zM728 331h5v5h-5zM728 336h5v5h-5zM728 341h5v5h-5zM540 313h20v5h-20zM540 318h5v5h-5zM560 318h5v5h-5zM540 323h5v5h-5zM560 323h5v5h-5zM540 328h20v5h-20zM540 333h5v5h-5zM550 333h5v5h-5zM540 338h5v5h-5zM555 338h5v5h-5zM540 343h5v5h-5zM560 343h5v5h-5zM570 313h25v5h-25zM570 318h5v5h-5zM570 323h5v5h-5zM570 328h20v5h-20zM570 333h5v5h-5zM570 338h5v5h-5zM570 343h25v5h-25zM605 313h20v5h-20zM600 318h5v5h-5zM600 323h5v5h-5zM605 328h15v5h-15zM620 333h5v5h-5zM620 338h5v5h-5zM600 343h20v5h-20zM630 313h25v5h-25zM640 318h5v5h-5zM640 323h5v5h-5zM640 328h5v5h-5zM640 333h5v5h-5zM640 338h5v5h-5zM640 343h5v5h-5zM665 313h15v5h-15zM660 318h5v5h-5zM680 318h5v5h-5zM660 323h5v5h-5zM680 323h5v5h-5zM660 328h25v5h-25zM660 333h5v5h-5zM680 333h5v5h-5zM660 338h5v5h-5zM680 338h5v5h-5zM660 343h5v5h-5zM680 343h5v5h-5zM690 313h20v5h-20zM690 318h5v5h-5zM710 318h5v5h-5zM690 323h5v5h-5zM710 323h5v5h-5zM690 328h20v5h-20zM690 333h5v5h-5zM700 333h5v5h-5zM690 338h5v5h-5zM705 338h5v5h-5zM690 343h5v5h-5zM710 343h5v5h-5zM720 313h25v5h-25zM730 318h5v5h-5zM730 323h5v5h-5zM730 328h5v5h-5zM730 333h5v5h-5zM730 338h5v5h-5zM730 343h5v5h-5z" fill="#2A59B8"></path><path d="M536 309h20v5h-20zM536 314h5v5h-5zM556 314h5v5h-5zM536 319h5v5h-5zM556 319h5v5h-5zM536 324h20v5h-20zM536 329h5v5h-5zM546 329h5v5h-5zM536 334h5v5h-5zM551 334h5v5h-5zM536 339h5v5h-5zM556 339h5v5h-5zM566 309h25v5h-25zM566 314h5v5h-5zM566 319h5v5h-5zM566 324h20v5h-20zM566 329h5v5h-5zM566 334h5v5h-5zM566 339h25v5h-25zM601 309h20v5h-20zM596 314h5v5h-5zM596 319h5v5h-5zM601 324h15v5h-15zM616 329h5v5h-5zM616 334h5v5h-5zM596 339h20v5h-20zM626 309h25v5h-25zM636 314h5v5h-5zM636 319h5v5h-5zM636 324h5v5h-5zM636 329h5v5h-5zM636 334h5v5h-5zM636 339h5v5h-5zM661 309h15v5h-15zM656 314h5v5h-5zM676 314h5v5h-5zM656 319h5v5h-5zM676 319h5v5h-5zM656 324h25v5h-25zM656 329h5v5h-5zM676 329h5v5h-5zM656 334h5v5h-5zM676 334h5v5h-5zM656 339h5v5h-5zM676 339h5v5h-5zM686 309h20v5h-20zM686 314h5v5h-5zM706 314h5v5h-5zM686 319h5v5h-5zM706 319h5v5h-5zM686 324h20v5h-20zM686 329h5v5h-5zM696 329h5v5h-5zM686 334h5v5h-5zM701 334h5v5h-5zM686 339h5v5h-5zM706 339h5v5h-5zM716 309h25v5h-25zM726 314h5v5h-5zM726 319h5v5h-5zM726 324h5v5h-5zM726 329h5v5h-5zM726 334h5v5h-5zM726 339h5v5h-5z" fill="#1B1B2F" stroke="#1B1B2F" stroke-width="6"></path><path d="M536 309h20v5h-20zM536 314h5v5h-5zM556 314h5v5h-5zM536 319h5v5h-5zM556 319h5v5h-5zM536 324h20v5h-20zM536 329h5v5h-5zM546 329h5v5h-5zM536 334h5v5h-5zM551 334h5v5h-5zM536 339h5v5h-5zM556 339h5v5h-5zM566 309h25v5h-25zM566 314h5v5h-5zM566 319h5v5h-5zM566 324h20v5h-20zM566 329h5v5h-5zM566 334h5v5h-5zM566 339h25v5h-25zM601 309h20v5h-20zM596 314h5v5h-5zM596 319h5v5h-5zM601 324h15v5h-15zM616 329h5v5h-5zM616 334h5v5h-5zM596 339h20v5h-20zM626 309h25v5h-25zM636 314h5v5h-5zM636 319h5v5h-5zM636 324h5v5h-5zM636 329h5v5h-5zM636 334h5v5h-5zM636 339h5v5h-5zM661 309h15v5h-15zM656 314h5v5h-5zM676 314h5v5h-5zM656 319h5v5h-5zM676 319h5v5h-5zM656 324h25v5h-25zM656 329h5v5h-5zM676 329h5v5h-5zM656 334h5v5h-5zM676 334h5v5h-5zM656 339h5v5h-5zM676 339h5v5h-5zM686 309h20v5h-20zM686 314h5v5h-5zM706 314h5v5h-5zM686 319h5v5h-5zM706 319h5v5h-5zM686 324h20v5h-20zM686 329h5v5h-5zM696 329h5v5h-5zM686 334h5v5h-5zM701 334h5v5h-5zM686 339h5v5h-5zM706 339h5v5h-5zM716 309h25v5h-25zM726 314h5v5h-5zM726 319h5v5h-5zM726 324h5v5h-5zM726 329h5v5h-5zM726 334h5v5h-5zM726 339h5v5h-5z" fill="#FFFFFF"></path><rect x="441.5" y="397.5" width="397" height="93" rx="12" fill="#2A59B8" stroke="#1B1B2F" stroke-width="3"></rect><rect x="443" y="399" width="394" height="82" rx="10" fill="#3A7BFF"></rect><path d="M451 406h36v5h-31v5h-5z" fill="#9FDCFF"></path><g transform="translate(530 408) scale(0.6666666666666666)"><metadata></metadata>
<path d="M34 10h14v7h-14zM27 17h21v7h-21zM76 17h7v7h-7zM20 24h28v7h-28zM62 24h7v7h-7zM83 24h7v7h-7zM6 31h42v7h-42zM69 31h7v7h-7zM83 31h7v7h-7zM6 38h42v7h-42zM55 38h7v7h-7zM69 38h7v7h-7zM83 38h7v7h-7zM6 45h42v7h-42zM55 45h7v7h-7zM69 45h7v7h-7zM83 45h7v7h-7zM6 52h42v7h-42zM55 52h7v7h-7zM69 52h7v7h-7zM83 52h7v7h-7zM6 59h42v7h-42zM69 59h7v7h-7zM83 59h7v7h-7zM20 66h28v7h-28zM62 66h7v7h-7zM83 66h7v7h-7zM27 73h21v7h-21zM76 73h7v7h-7zM34 80h14v7h-14z" fill="#1B1B2F" stroke="#1B1B2F" stroke-width="6"></path><path d="M34 10h14v7h-14zM27 17h21v7h-21zM20 24h28v7h-28zM6 31h42v7h-42zM6 38h35v7h-35zM6 45h35v7h-35zM6 52h35v7h-35zM6 59h42v7h-42zM20 66h28v7h-28zM27 73h21v7h-21zM34 80h14v7h-14z" fill="#A7ABBD"></path><path d="M76 17h7v7h-7zM62 24h7v7h-7zM83 24h7v7h-7zM69 31h7v7h-7zM83 31h7v7h-7zM55 38h7v7h-7zM69 38h7v7h-7zM83 38h7v7h-7zM55 45h7v7h-7zM69 45h7v7h-7zM83 45h7v7h-7zM55 52h7v7h-7zM69 52h7v7h-7zM83 52h7v7h-7zM69 59h7v7h-7zM83 59h7v7h-7zM62 66h7v7h-7zM83 66h7v7h-7zM76 73h7v7h-7z" fill="#FFFFFF"></path><path d="M41 38h7v7h-7zM41 45h7v7h-7zM41 52h7v7h-7z" fill="#7A7F96"></path>
</g><path d="M605 423h20v5h-20zM600 428h5v5h-5zM600 433h5v5h-5zM605 438h15v5h-15zM620 443h5v5h-5zM620 448h5v5h-5zM600 453h20v5h-20zM635 423h15v5h-15zM630 428h5v5h-5zM650 428h5v5h-5zM630 433h5v5h-5zM650 433h5v5h-5zM630 438h5v5h-5zM650 438h5v5h-5zM630 443h5v5h-5zM650 443h5v5h-5zM630 448h5v5h-5zM650 448h5v5h-5zM635 453h15v5h-15zM660 423h5v5h-5zM680 423h5v5h-5zM660 428h5v5h-5zM680 428h5v5h-5zM660 433h5v5h-5zM680 433h5v5h-5zM660 438h5v5h-5zM680 438h5v5h-5zM660 443h5v5h-5zM680 443h5v5h-5zM660 448h5v5h-5zM680 448h5v5h-5zM665 453h15v5h-15zM690 423h5v5h-5zM710 423h5v5h-5zM690 428h10v5h-10zM710 428h5v5h-5zM690 433h5v5h-5zM700 433h5v5h-5zM710 433h5v5h-5zM690 438h5v5h-5zM700 438h5v5h-5zM710 438h5v5h-5zM690 443h5v5h-5zM705 443h10v5h-10zM690 448h5v5h-5zM710 448h5v5h-5zM690 453h5v5h-5zM710 453h5v5h-5zM720 423h20v5h-20zM720 428h5v5h-5zM740 428h5v5h-5zM720 433h5v5h-5zM740 433h5v5h-5zM720 438h5v5h-5zM740 438h5v5h-5zM720 443h5v5h-5zM740 443h5v5h-5zM720 448h5v5h-5zM740 448h5v5h-5zM720 453h20v5h-20zM607 425h20v5h-20zM602 430h5v5h-5zM602 435h5v5h-5zM607 440h15v5h-15zM622 445h5v5h-5zM622 450h5v5h-5zM602 455h20v5h-20zM637 425h15v5h-15zM632 430h5v5h-5zM652 430h5v5h-5zM632 435h5v5h-5zM652 435h5v5h-5zM632 440h5v5h-5zM652 440h5v5h-5zM632 445h5v5h-5zM652 445h5v5h-5zM632 450h5v5h-5zM652 450h5v5h-5zM637 455h15v5h-15zM662 425h5v5h-5zM682 425h5v5h-5zM662 430h5v5h-5zM682 430h5v5h-5zM662 435h5v5h-5zM682 435h5v5h-5zM662 440h5v5h-5zM682 440h5v5h-5zM662 445h5v5h-5zM682 445h5v5h-5zM662 450h5v5h-5zM682 450h5v5h-5zM667 455h15v5h-15zM692 425h5v5h-5zM712 425h5v5h-5zM692 430h10v5h-10zM712 430h5v5h-5zM692 435h5v5h-5zM702 435h5v5h-5zM712 435h5v5h-5zM692 440h5v5h-5zM702 440h5v5h-5zM712 440h5v5h-5zM692 445h5v5h-5zM707 445h10v5h-10zM692 450h5v5h-5zM712 450h5v5h-5zM692 455h5v5h-5zM712 455h5v5h-5zM722 425h20v5h-20zM722 430h5v5h-5zM742 430h5v5h-5zM722 435h5v5h-5zM742 435h5v5h-5zM722 440h5v5h-5zM742 440h5v5h-5zM722 445h5v5h-5zM742 445h5v5h-5zM722 450h5v5h-5zM742 450h5v5h-5zM722 455h20v5h-20z" fill="#1B1B2F" stroke="#1B1B2F" stroke-width="6"></path><path d="M605 423h20v5h-20zM600 428h5v5h-5zM600 433h5v5h-5zM605 438h15v5h-15zM620 443h5v5h-5zM620 448h5v5h-5zM600 453h20v5h-20zM635 423h15v5h-15zM630 428h5v5h-5zM650 428h5v5h-5zM630 433h5v5h-5zM650 433h5v5h-5zM630 438h5v5h-5zM650 438h5v5h-5zM630 443h5v5h-5zM650 443h5v5h-5zM630 448h5v5h-5zM650 448h5v5h-5zM635 453h15v5h-15zM660 423h5v5h-5zM680 423h5v5h-5zM660 428h5v5h-5zM680 428h5v5h-5zM660 433h5v5h-5zM680 433h5v5h-5zM660 438h5v5h-5zM680 438h5v5h-5zM660 443h5v5h-5zM680 443h5v5h-5zM660 448h5v5h-5zM680 448h5v5h-5zM665 453h15v5h-15zM690 423h5v5h-5zM710 423h5v5h-5zM690 428h10v5h-10zM710 428h5v5h-5zM690 433h5v5h-5zM700 433h5v5h-5zM710 433h5v5h-5zM690 438h5v5h-5zM700 438h5v5h-5zM710 438h5v5h-5zM690 443h5v5h-5zM705 443h10v5h-10zM690 448h5v5h-5zM710 448h5v5h-5zM690 453h5v5h-5zM710 453h5v5h-5zM720 423h20v5h-20zM720 428h5v5h-5zM740 428h5v5h-5zM720 433h5v5h-5zM740 433h5v5h-5zM720 438h5v5h-5zM740 438h5v5h-5zM720 443h5v5h-5zM740 443h5v5h-5zM720 448h5v5h-5zM740 448h5v5h-5zM720 453h20v5h-20zM607 425h20v5h-20zM602 430h5v5h-5zM602 435h5v5h-5zM607 440h15v5h-15zM622 445h5v5h-5zM622 450h5v5h-5zM602 455h20v5h-20zM637 425h15v5h-15zM632 430h5v5h-5zM652 430h5v5h-5zM632 435h5v5h-5zM652 435h5v5h-5zM632 440h5v5h-5zM652 440h5v5h-5zM632 445h5v5h-5zM652 445h5v5h-5zM632 450h5v5h-5zM652 450h5v5h-5zM637 455h15v5h-15zM662 425h5v5h-5zM682 425h5v5h-5zM662 430h5v5h-5zM682 430h5v5h-5zM662 435h5v5h-5zM682 435h5v5h-5zM662 440h5v5h-5zM682 440h5v5h-5zM662 445h5v5h-5zM682 445h5v5h-5zM662 450h5v5h-5zM682 450h5v5h-5zM667 455h15v5h-15zM692 425h5v5h-5zM712 425h5v5h-5zM692 430h10v5h-10zM712 430h5v5h-5zM692 435h5v5h-5zM702 435h5v5h-5zM712 435h5v5h-5zM692 440h5v5h-5zM702 440h5v5h-5zM712 440h5v5h-5zM692 445h5v5h-5zM707 445h10v5h-10zM692 450h5v5h-5zM712 450h5v5h-5zM692 455h5v5h-5zM712 455h5v5h-5zM722 425h20v5h-20zM722 430h5v5h-5zM742 430h5v5h-5zM722 435h5v5h-5zM742 435h5v5h-5zM722 440h5v5h-5zM742 440h5v5h-5zM722 445h5v5h-5zM742 445h5v5h-5zM722 450h5v5h-5zM742 450h5v5h-5zM722 455h20v5h-20z" fill="#2A59B8"></path><path d="M603 421h20v5h-20zM598 426h5v5h-5zM598 431h5v5h-5zM603 436h15v5h-15zM618 441h5v5h-5zM618 446h5v5h-5zM598 451h20v5h-20zM633 421h15v5h-15zM628 426h5v5h-5zM648 426h5v5h-5zM628 431h5v5h-5zM648 431h5v5h-5zM628 436h5v5h-5zM648 436h5v5h-5zM628 441h5v5h-5zM648 441h5v5h-5zM628 446h5v5h-5zM648 446h5v5h-5zM633 451h15v5h-15zM658 421h5v5h-5zM678 421h5v5h-5zM658 426h5v5h-5zM678 426h5v5h-5zM658 431h5v5h-5zM678 431h5v5h-5zM658 436h5v5h-5zM678 436h5v5h-5zM658 441h5v5h-5zM678 441h5v5h-5zM658 446h5v5h-5zM678 446h5v5h-5zM663 451h15v5h-15zM688 421h5v5h-5zM708 421h5v5h-5zM688 426h10v5h-10zM708 426h5v5h-5zM688 431h5v5h-5zM698 431h5v5h-5zM708 431h5v5h-5zM688 436h5v5h-5zM698 436h5v5h-5zM708 436h5v5h-5zM688 441h5v5h-5zM703 441h10v5h-10zM688 446h5v5h-5zM708 446h5v5h-5zM688 451h5v5h-5zM708 451h5v5h-5zM718 421h20v5h-20zM718 426h5v5h-5zM738 426h5v5h-5zM718 431h5v5h-5zM738 431h5v5h-5zM718 436h5v5h-5zM738 436h5v5h-5zM718 441h5v5h-5zM738 441h5v5h-5zM718 446h5v5h-5zM738 446h5v5h-5zM718 451h20v5h-20z" fill="#1B1B2F" stroke="#1B1B2F" stroke-width="6"></path><path d="M603 421h20v5h-20zM598 426h5v5h-5zM598 431h5v5h-5zM603 436h15v5h-15zM618 441h5v5h-5zM618 446h5v5h-5zM598 451h20v5h-20zM633 421h15v5h-15zM628 426h5v5h-5zM648 426h5v5h-5zM628 431h5v5h-5zM648 431h5v5h-5zM628 436h5v5h-5zM648 436h5v5h-5zM628 441h5v5h-5zM648 441h5v5h-5zM628 446h5v5h-5zM648 446h5v5h-5zM633 451h15v5h-15zM658 421h5v5h-5zM678 421h5v5h-5zM658 426h5v5h-5zM678 426h5v5h-5zM658 431h5v5h-5zM678 431h5v5h-5zM658 436h5v5h-5zM678 436h5v5h-5zM658 441h5v5h-5zM678 441h5v5h-5zM658 446h5v5h-5zM678 446h5v5h-5zM663 451h15v5h-15zM688 421h5v5h-5zM708 421h5v5h-5zM688 426h10v5h-10zM708 426h5v5h-5zM688 431h5v5h-5zM698 431h5v5h-5zM708 431h5v5h-5zM688 436h5v5h-5zM698 436h5v5h-5zM708 436h5v5h-5zM688 441h5v5h-5zM703 441h10v5h-10zM688 446h5v5h-5zM708 446h5v5h-5zM688 451h5v5h-5zM708 451h5v5h-5zM718 421h20v5h-20zM718 426h5v5h-5zM738 426h5v5h-5zM718 431h5v5h-5zM738 431h5v5h-5zM718 436h5v5h-5zM738 436h5v5h-5zM718 441h5v5h-5zM738 441h5v5h-5zM718 446h5v5h-5zM738 446h5v5h-5zM718 451h20v5h-20z" fill="#FFFFFF"></path><rect x="441.5" y="509.5" width="397" height="93" rx="12" fill="#B83535" stroke="#1B1B2F" stroke-width="3"></rect><rect x="443" y="511" width="394" height="82" rx="10" fill="#FF4A4A"></rect><path d="M451 518h36v5h-31v5h-5z" fill="#FF7AA8"></path><path d="M583 535h5v5h-5zM603 535h5v5h-5zM583 540h10v5h-10zM598 540h10v5h-10zM583 545h5v5h-5zM593 545h5v5h-5zM603 545h5v5h-5zM583 550h5v5h-5zM593 550h5v5h-5zM603 550h5v5h-5zM583 555h5v5h-5zM603 555h5v5h-5zM583 560h5v5h-5zM603 560h5v5h-5zM583 565h5v5h-5zM603 565h5v5h-5zM613 535h25v5h-25zM613 540h5v5h-5zM613 545h5v5h-5zM613 550h20v5h-20zM613 555h5v5h-5zM613 560h5v5h-5zM613 565h25v5h-25zM643 535h5v5h-5zM663 535h5v5h-5zM643 540h10v5h-10zM663 540h5v5h-5zM643 545h5v5h-5zM653 545h5v5h-5zM663 545h5v5h-5zM643 550h5v5h-5zM653 550h5v5h-5zM663 550h5v5h-5zM643 555h5v5h-5zM658 555h10v5h-10zM643 560h5v5h-5zM663 560h5v5h-5zM643 565h5v5h-5zM663 565h5v5h-5zM673 535h5v5h-5zM693 535h5v5h-5zM673 540h5v5h-5zM693 540h5v5h-5zM673 545h5v5h-5zM693 545h5v5h-5zM673 550h5v5h-5zM693 550h5v5h-5zM673 555h5v5h-5zM693 555h5v5h-5zM673 560h5v5h-5zM693 560h5v5h-5zM678 565h15v5h-15zM585 537h5v5h-5zM605 537h5v5h-5zM585 542h10v5h-10zM600 542h10v5h-10zM585 547h5v5h-5zM595 547h5v5h-5zM605 547h5v5h-5zM585 552h5v5h-5zM595 552h5v5h-5zM605 552h5v5h-5zM585 557h5v5h-5zM605 557h5v5h-5zM585 562h5v5h-5zM605 562h5v5h-5zM585 567h5v5h-5zM605 567h5v5h-5zM615 537h25v5h-25zM615 542h5v5h-5zM615 547h5v5h-5zM615 552h20v5h-20zM615 557h5v5h-5zM615 562h5v5h-5zM615 567h25v5h-25zM645 537h5v5h-5zM665 537h5v5h-5zM645 542h10v5h-10zM665 542h5v5h-5zM645 547h5v5h-5zM655 547h5v5h-5zM665 547h5v5h-5zM645 552h5v5h-5zM655 552h5v5h-5zM665 552h5v5h-5zM645 557h5v5h-5zM660 557h10v5h-10zM645 562h5v5h-5zM665 562h5v5h-5zM645 567h5v5h-5zM665 567h5v5h-5zM675 537h5v5h-5zM695 537h5v5h-5zM675 542h5v5h-5zM695 542h5v5h-5zM675 547h5v5h-5zM695 547h5v5h-5zM675 552h5v5h-5zM695 552h5v5h-5zM675 557h5v5h-5zM695 557h5v5h-5zM675 562h5v5h-5zM695 562h5v5h-5zM680 567h15v5h-15z" fill="#1B1B2F" stroke="#1B1B2F" stroke-width="6"></path><path d="M583 535h5v5h-5zM603 535h5v5h-5zM583 540h10v5h-10zM598 540h10v5h-10zM583 545h5v5h-5zM593 545h5v5h-5zM603 545h5v5h-5zM583 550h5v5h-5zM593 550h5v5h-5zM603 550h5v5h-5zM583 555h5v5h-5zM603 555h5v5h-5zM583 560h5v5h-5zM603 560h5v5h-5zM583 565h5v5h-5zM603 565h5v5h-5zM613 535h25v5h-25zM613 540h5v5h-5zM613 545h5v5h-5zM613 550h20v5h-20zM613 555h5v5h-5zM613 560h5v5h-5zM613 565h25v5h-25zM643 535h5v5h-5zM663 535h5v5h-5zM643 540h10v5h-10zM663 540h5v5h-5zM643 545h5v5h-5zM653 545h5v5h-5zM663 545h5v5h-5zM643 550h5v5h-5zM653 550h5v5h-5zM663 550h5v5h-5zM643 555h5v5h-5zM658 555h10v5h-10zM643 560h5v5h-5zM663 560h5v5h-5zM643 565h5v5h-5zM663 565h5v5h-5zM673 535h5v5h-5zM693 535h5v5h-5zM673 540h5v5h-5zM693 540h5v5h-5zM673 545h5v5h-5zM693 545h5v5h-5zM673 550h5v5h-5zM693 550h5v5h-5zM673 555h5v5h-5zM693 555h5v5h-5zM673 560h5v5h-5zM693 560h5v5h-5zM678 565h15v5h-15zM585 537h5v5h-5zM605 537h5v5h-5zM585 542h10v5h-10zM600 542h10v5h-10zM585 547h5v5h-5zM595 547h5v5h-5zM605 547h5v5h-5zM585 552h5v5h-5zM595 552h5v5h-5zM605 552h5v5h-5zM585 557h5v5h-5zM605 557h5v5h-5zM585 562h5v5h-5zM605 562h5v5h-5zM585 567h5v5h-5zM605 567h5v5h-5zM615 537h25v5h-25zM615 542h5v5h-5zM615 547h5v5h-5zM615 552h20v5h-20zM615 557h5v5h-5zM615 562h5v5h-5zM615 567h25v5h-25zM645 537h5v5h-5zM665 537h5v5h-5zM645 542h10v5h-10zM665 542h5v5h-5zM645 547h5v5h-5zM655 547h5v5h-5zM665 547h5v5h-5zM645 552h5v5h-5zM655 552h5v5h-5zM665 552h5v5h-5zM645 557h5v5h-5zM660 557h10v5h-10zM645 562h5v5h-5zM665 562h5v5h-5zM645 567h5v5h-5zM665 567h5v5h-5zM675 537h5v5h-5zM695 537h5v5h-5zM675 542h5v5h-5zM695 542h5v5h-5zM675 547h5v5h-5zM695 547h5v5h-5zM675 552h5v5h-5zM695 552h5v5h-5zM675 557h5v5h-5zM695 557h5v5h-5zM675 562h5v5h-5zM695 562h5v5h-5zM680 567h15v5h-15z" fill="#B83535"></path><path d="M581 533h5v5h-5zM601 533h5v5h-5zM581 538h10v5h-10zM596 538h10v5h-10zM581 543h5v5h-5zM591 543h5v5h-5zM601 543h5v5h-5zM581 548h5v5h-5zM591 548h5v5h-5zM601 548h5v5h-5zM581 553h5v5h-5zM601 553h5v5h-5zM581 558h5v5h-5zM601 558h5v5h-5zM581 563h5v5h-5zM601 563h5v5h-5zM611 533h25v5h-25zM611 538h5v5h-5zM611 543h5v5h-5zM611 548h20v5h-20zM611 553h5v5h-5zM611 558h5v5h-5zM611 563h25v5h-25zM641 533h5v5h-5zM661 533h5v5h-5zM641 538h10v5h-10zM661 538h5v5h-5zM641 543h5v5h-5zM651 543h5v5h-5zM661 543h5v5h-5zM641 548h5v5h-5zM651 548h5v5h-5zM661 548h5v5h-5zM641 553h5v5h-5zM656 553h10v5h-10zM641 558h5v5h-5zM661 558h5v5h-5zM641 563h5v5h-5zM661 563h5v5h-5zM671 533h5v5h-5zM691 533h5v5h-5zM671 538h5v5h-5zM691 538h5v5h-5zM671 543h5v5h-5zM691 543h5v5h-5zM671 548h5v5h-5zM691 548h5v5h-5zM671 553h5v5h-5zM691 553h5v5h-5zM671 558h5v5h-5zM691 558h5v5h-5zM676 563h15v5h-15z" fill="#1B1B2F" stroke="#1B1B2F" stroke-width="6"></path><path d="M581 533h5v5h-5zM601 533h5v5h-5zM581 538h10v5h-10zM596 538h10v5h-10zM581 543h5v5h-5zM591 543h5v5h-5zM601 543h5v5h-5zM581 548h5v5h-5zM591 548h5v5h-5zM601 548h5v5h-5zM581 553h5v5h-5zM601 553h5v5h-5zM581 558h5v5h-5zM601 558h5v5h-5zM581 563h5v5h-5zM601 563h5v5h-5zM611 533h25v5h-25zM611 538h5v5h-5zM611 543h5v5h-5zM611 548h20v5h-20zM611 553h5v5h-5zM611 558h5v5h-5zM611 563h25v5h-25zM641 533h5v5h-5zM661 533h5v5h-5zM641 538h10v5h-10zM661 538h5v5h-5zM641 543h5v5h-5zM651 543h5v5h-5zM661 543h5v5h-5zM641 548h5v5h-5zM651 548h5v5h-5zM661 548h5v5h-5zM641 553h5v5h-5zM656 553h10v5h-10zM641 558h5v5h-5zM661 558h5v5h-5zM641 563h5v5h-5zM661 563h5v5h-5zM671 533h5v5h-5zM691 533h5v5h-5zM671 538h5v5h-5zM691 538h5v5h-5zM671 543h5v5h-5zM691 543h5v5h-5zM671 548h5v5h-5zM691 548h5v5h-5zM671 553h5v5h-5zM691 553h5v5h-5zM671 558h5v5h-5zM691 558h5v5h-5zM676 563h15v5h-15z" fill="#FFFFFF"></path>
</svg>